# https://github.com/mikedh/trimesh
mtllib material.mtl

o Plastic_Pallet_01
usemtl Plastic_Pallet_01
v -0.65639216 0.12395556 0.03028849
v -0.65639217 0.12395570 0.14971157
v -0.65639216 0.20620570 0.14971147
v -0.65639215 0.20620556 0.03028839
v 0.56099336 0.12133025 0.03028859
v 0.56099335 0.12133038 0.14971168
v -0.65377785 0.12133070 0.14971157
v -0.65377783 0.12133057 0.03028849
v 0.56099335 0.12395539 0.15230781
v 0.56099336 0.20620539 0.15230771
v -0.65377784 0.20620570 0.15230761
v -0.65377785 0.12395570 0.15230771
v -0.65377783 0.20883056 0.03028839
v -0.65377784 0.20883069 0.14971147
v 0.56099336 0.20883038 0.14971157
v 0.56099337 0.20883024 0.03028849
v 0.56360769 0.20620525 0.03028850
v 0.56360768 0.20620539 0.14971157
v 0.56360768 0.12395538 0.14971167
v 0.56360769 0.12395524 0.03028859
v 0.56099337 -0.53229454 0.15230852
v -0.65377775 -0.53229435 0.15230844
v -0.65377748 0.86245556 0.15230683
v 0.56099364 0.86245537 0.15230691
v -0.65377748 0.86508060 0.15490299
v -0.65377748 0.86508062 0.17740300
v 0.56099364 0.86508036 0.17740307
v 0.56099364 0.86508034 0.15490308
v -0.65639208 -0.53229427 0.15490460
v -0.65639208 -0.53229426 0.17740463
v -0.65639180 0.86245565 0.17740300
v -0.65639180 0.86245563 0.15490299
v 0.56099369 0.86245497 0.02769159
v 0.56099365 0.78020507 0.02769168
v -0.65377755 0.78020540 0.02769157
v -0.65377750 0.86245538 0.02769148
v -0.65377775 -0.53229426 0.18000078
v 0.56099337 -0.53229451 0.18000085
v 0.56099364 0.86245539 0.17999926
v -0.65377748 0.86245565 0.17999915
v 0.56360793 0.86245538 0.15490307
v 0.56360793 0.86245539 0.17740311
v 0.56360765 -0.53229452 0.17740470
v 0.56360766 -0.53229453 0.15490469
v 0.56099337 -0.53491950 0.15490468
v 0.56099337 -0.53491949 0.17740474
v -0.65377775 -0.53491923 0.17740463
v -0.65377775 -0.53491924 0.15490461
v -0.65639195 0.78020540 0.03028772
v -0.65639196 0.78020553 0.14971080
v -0.65639192 0.86245548 0.14971071
v -0.65639191 0.86245539 0.03028763
v 0.56099365 0.77758006 0.03028783
v 0.56099364 0.77758019 0.14971091
v -0.65377756 0.77758049 0.14971080
v -0.65377755 0.77758036 0.03028773
v 0.56099346 -0.45004461 0.02769311
v 0.56099342 -0.53229471 0.02769320
v -0.65377778 -0.53229429 0.02769310
v -0.65377773 -0.45004431 0.02769300
v 0.56099364 0.78020520 0.15230705
v 0.56099368 0.86245514 0.15230696
v -0.65377751 0.86245548 0.15230685
v -0.65377756 0.78020553 0.15230694
v -0.65377750 0.86508036 0.03028763
v -0.65377751 0.86508045 0.14971071
v 0.56099368 0.86508019 0.14971082
v 0.56099369 0.86508002 0.03028773
v 0.56360802 0.86245498 0.03028774
v 0.56360801 0.86245514 0.14971082
v 0.56360796 0.78020520 0.14971091
v 0.56360797 0.78020507 0.03028783
v -0.65639218 -0.53229429 0.03028925
v -0.65639219 -0.53229420 0.14971232
v -0.65639215 -0.45004418 0.14971223
v -0.65639213 -0.45004431 0.03028915
v 0.56099342 -0.53491967 0.03028936
v 0.56099341 -0.53491951 0.14971243
v -0.65377779 -0.53491925 0.14971233
v -0.65377778 -0.53491934 0.03028925
v 0.56099341 -0.53229454 0.15230857
v 0.56099345 -0.45004447 0.15230848
v -0.65377774 -0.45004418 0.15230837
v -0.65377779 -0.53229420 0.15230846
v -0.65377773 -0.44741934 0.03028915
v -0.65377774 -0.44741921 0.14971223
v 0.56099345 -0.44741947 0.14971234
v 0.56099346 -0.44741960 0.03028925
v 0.56360779 -0.45004461 0.03028926
v 0.56360778 -0.45004448 0.14971234
v 0.56360773 -0.53229454 0.14971243
v 0.56360774 -0.53229470 0.03028935
v 0.56099338 -0.53229473 0.00000086
v -0.65377774 -0.53229447 0.00000078
v -0.65377746 0.86245544 -0.00000084
v 0.56099366 0.86245518 -0.00000076
v -0.65377746 0.86508041 0.00259531
v -0.65377746 0.86508043 0.02509532
v 0.56099365 0.86508017 0.02509540
v 0.56099366 0.86508015 0.00259539
v -0.65639206 -0.53229447 0.00259693
v -0.65639207 -0.53229445 0.02509694
v -0.65639179 0.86245546 0.02509533
v -0.65639179 0.86245544 0.00259531
v -0.65377774 -0.53229445 0.02769310
v 0.56099338 -0.53229471 0.02769318
v 0.56099365 0.86245520 0.02769156
v -0.65377746 0.86245546 0.02769148
v 0.56360794 0.86245518 0.00259539
v 0.56360794 0.86245520 0.02509541
v 0.56360767 -0.53229471 0.02509703
v 0.56360767 -0.53229473 0.00259701
v 0.56099338 -0.53491969 0.00259701
v 0.56099338 -0.53491968 0.02509703
v -0.65377774 -0.53491942 0.02509695
v -0.65377774 -0.53491944 0.00259693
v -0.65377783 0.20620556 0.02769224
v -0.65562647 0.20620556 0.02845263
v -0.65528726 0.20772110 0.02878950
v -0.65377790 0.20806171 0.02845263
v -0.65562647 0.20806171 0.03028839
v -0.65528726 0.20772110 0.02878950
v -0.65562647 0.20620556 0.02845263
v -0.65377790 0.20806171 0.02845263
v -0.65528726 0.20772110 0.02878950
v -0.65562647 0.20806171 0.03028839
v -0.65562648 0.20620570 0.15154724
v -0.65528728 0.20772124 0.15121038
v -0.65562648 0.20806185 0.14971148
v -0.65377791 0.20806185 0.15154724
v -0.65528728 0.20772124 0.15121038
v -0.65562648 0.20620570 0.15154724
v -0.65562648 0.20806185 0.14971148
v -0.65528728 0.20772124 0.15121038
v -0.65377791 0.20806185 0.15154724
v 0.56099337 0.20620525 0.02769235
v 0.56099337 0.20806139 0.02845274
v 0.56250277 0.20772079 0.02878960
v 0.56284197 0.20620525 0.02845274
v 0.56284197 0.20806139 0.03028849
v 0.56250277 0.20772079 0.02878960
v 0.56099337 0.20806139 0.02845274
v 0.56284197 0.20620525 0.02845274
v 0.56250277 0.20772079 0.02878960
v 0.56284197 0.20806139 0.03028849
v 0.56284196 0.20620539 0.15154735
v 0.56250276 0.20772093 0.15121048
v 0.56099336 0.20806154 0.15154735
v 0.56284196 0.20806153 0.14971158
v 0.56250276 0.20772093 0.15121048
v 0.56284196 0.20620539 0.15154735
v 0.56099336 0.20806154 0.15154735
v 0.56250276 0.20772093 0.15121048
v 0.56284196 0.20806153 0.14971158
v -0.65377783 0.12395556 0.02769234
v -0.65377791 0.12209941 0.02845273
v -0.65528727 0.12244002 0.02878959
v -0.65562647 0.12395556 0.02845273
v -0.65562648 0.12209941 0.03028848
v -0.65528727 0.12244002 0.02878959
v -0.65377791 0.12209941 0.02845273
v -0.65562647 0.12395556 0.02845273
v -0.65528727 0.12244002 0.02878959
v -0.65562648 0.12209941 0.03028848
v -0.65562649 0.12395570 0.15154734
v -0.65528728 0.12244016 0.15121048
v -0.65377792 0.12209955 0.15154734
v -0.65562649 0.12209955 0.14971158
v -0.65528728 0.12244016 0.15121048
v -0.65562649 0.12395570 0.15154734
v -0.65377792 0.12209955 0.15154734
v -0.65528728 0.12244016 0.15121048
v -0.65562649 0.12209955 0.14971158
v 0.56099336 0.12395524 0.02769244
v 0.56284196 0.12395524 0.02845284
v 0.56250276 0.12243970 0.02878970
v 0.56099336 0.12209909 0.02845284
v 0.56284196 0.12209909 0.03028859
v 0.56250276 0.12243970 0.02878970
v 0.56284196 0.12395524 0.02845284
v 0.56099336 0.12209909 0.02845284
v 0.56250276 0.12243970 0.02878970
v 0.56284196 0.12209909 0.03028859
v 0.56099335 0.12209924 0.15154745
v 0.56250275 0.12243984 0.15121058
v 0.56284195 0.12395539 0.15154745
v 0.56284195 0.12209923 0.14971169
v 0.56250275 0.12243984 0.15121058
v 0.56099335 0.12209924 0.15154745
v 0.56284195 0.12395539 0.15154745
v 0.56250275 0.12243984 0.15121058
v 0.56284195 0.12209923 0.14971169
v 0.56099364 0.86431145 0.15306733
v 0.56250297 0.86397080 0.15340419
v 0.56284217 0.86245530 0.15306732
v 0.56284217 0.86431145 0.15490308
v 0.56250297 0.86397080 0.15340419
v 0.56099364 0.86431145 0.15306733
v 0.56284217 0.86245530 0.15306732
v 0.56250297 0.86397080 0.15340419
v 0.56284217 0.86431145 0.15490308
v 0.56099364 0.86431147 0.17923883
v 0.56250296 0.86397082 0.17890196
v 0.56284217 0.86431147 0.17740307
v 0.56284217 0.86245532 0.17923887
v 0.56250296 0.86397082 0.17890196
v 0.56099364 0.86431147 0.17923883
v 0.56284217 0.86431147 0.17740307
v 0.56250296 0.86397082 0.17890196
v 0.56284217 0.86245532 0.17923887
v 0.56284189 -0.53229446 0.15306894
v 0.56250269 -0.53380996 0.15340580
v 0.56099337 -0.53415061 0.15306894
v 0.56284189 -0.53415061 0.15490468
v 0.56250269 -0.53380996 0.15340580
v 0.56284189 -0.53229446 0.15306894
v 0.56099337 -0.53415061 0.15306894
v 0.56250269 -0.53380996 0.15340580
v 0.56284189 -0.53415061 0.15490468
v 0.56099337 -0.53415059 0.17924051
v 0.56250269 -0.53380994 0.17890363
v 0.56284189 -0.53229444 0.17924047
v 0.56284189 -0.53415060 0.17740474
v 0.56250269 -0.53380994 0.17890363
v 0.56099337 -0.53415059 0.17924051
v 0.56284189 -0.53229444 0.17924047
v 0.56250269 -0.53380994 0.17890363
v 0.56284189 -0.53415060 0.17740474
v -0.65562604 0.86245556 0.15306724
v -0.65528684 0.86397106 0.15340411
v -0.65377748 0.86431171 0.15306724
v -0.65562604 0.86431171 0.15490299
v -0.65528684 0.86397106 0.15340411
v -0.65562604 0.86245556 0.15306724
v -0.65377748 0.86431171 0.15306724
v -0.65528684 0.86397106 0.15340411
v -0.65562604 0.86431171 0.15490299
v -0.65377748 0.86431173 0.17923877
v -0.65528684 0.86397108 0.17890189
v -0.65562604 0.86245558 0.17923877
v -0.65562604 0.86431173 0.17740300
v -0.65528684 0.86397108 0.17890189
v -0.65377748 0.86431173 0.17923877
v -0.65562604 0.86245558 0.17923877
v -0.65528684 0.86397108 0.17890189
v -0.65562604 0.86431173 0.17740300
v -0.65377775 -0.53415035 0.15306886
v -0.65528711 -0.53380970 0.15340572
v -0.65562631 -0.53229420 0.15306886
v -0.65562631 -0.53415035 0.15490460
v -0.65528711 -0.53380970 0.15340572
v -0.65377775 -0.53415035 0.15306886
v -0.65562631 -0.53229420 0.15306886
v -0.65528711 -0.53380970 0.15340572
v -0.65562631 -0.53415035 0.15490460
v -0.65562632 -0.53229418 0.17924040
v -0.65528711 -0.53380968 0.17890352
v -0.65377775 -0.53415034 0.17924040
v -0.65562632 -0.53415034 0.17740463
v -0.65528711 -0.53380968 0.17890352
v -0.65562632 -0.53229418 0.17924040
v -0.65377775 -0.53415034 0.17924040
v -0.65528711 -0.53380968 0.17890352
v -0.65562632 -0.53415034 0.17740463
v -0.65562622 0.86245531 0.02845187
v -0.65528694 0.86397081 0.02878873
v -0.65377758 0.86431146 0.02845187
v -0.65562622 0.86431147 0.03028762
v -0.65528694 0.86397081 0.02878873
v -0.65562622 0.86245531 0.02845187
v -0.65377758 0.86431146 0.02845187
v -0.65528694 0.86397081 0.02878873
v -0.65562622 0.86431147 0.03028762
v -0.65562623 0.86245540 0.15154649
v -0.65528695 0.86397091 0.15120962
v -0.65562623 0.86431156 0.14971072
v -0.65377759 0.86431156 0.15154649
v -0.65528695 0.86397091 0.15120962
v -0.65562623 0.86245540 0.15154649
v -0.65562623 0.86431156 0.14971072
v -0.65528695 0.86397091 0.15120962
v -0.65377759 0.86431156 0.15154649
v 0.56099365 0.86431113 0.02845198
v 0.56250301 0.86397055 0.02878884
v 0.56284222 0.86245497 0.02845198
v 0.56284222 0.86431113 0.03028773
v 0.56250301 0.86397055 0.02878884
v 0.56099365 0.86431113 0.02845198
v 0.56284222 0.86245497 0.02845198
v 0.56250301 0.86397055 0.02878884
v 0.56284222 0.86431113 0.03028773
v 0.56284221 0.86245514 0.15154659
v 0.56250300 0.86397072 0.15120973
v 0.56099364 0.86431130 0.15154659
v 0.56284221 0.86431130 0.14971083
v 0.56250300 0.86397072 0.15120973
v 0.56284221 0.86245514 0.15154659
v 0.56099364 0.86431130 0.15154659
v 0.56250300 0.86397072 0.15120973
v 0.56284221 0.86431130 0.14971083
v -0.65377762 0.77834917 0.02845197
v -0.65528699 0.77868990 0.02878883
v -0.65562626 0.78020540 0.02845197
v -0.65562627 0.77834917 0.03028772
v -0.65528699 0.77868990 0.02878883
v -0.65377762 0.77834917 0.02845197
v -0.65562626 0.78020540 0.02845197
v -0.65528699 0.77868990 0.02878883
v -0.65562627 0.77834917 0.03028772
v -0.65562628 0.78020553 0.15154658
v -0.65528700 0.77869003 0.15120971
v -0.65377764 0.77834930 0.15154658
v -0.65562628 0.77834930 0.14971081
v -0.65528700 0.77869003 0.15120971
v -0.65562628 0.78020553 0.15154658
v -0.65377764 0.77834930 0.15154658
v -0.65528700 0.77869003 0.15120971
v -0.65562628 0.77834930 0.14971081
v 0.56284217 0.78020510 0.02845207
v 0.56250297 0.77868960 0.02878894
v 0.56099361 0.77834891 0.02845208
v 0.56284217 0.77834891 0.03028783
v 0.56250297 0.77868960 0.02878894
v 0.56284217 0.78020510 0.02845207
v 0.56099361 0.77834891 0.02845208
v 0.56250297 0.77868960 0.02878894
v 0.56284217 0.77834891 0.03028783
v 0.56099360 0.77834904 0.15154669
v 0.56250296 0.77868973 0.15120982
v 0.56284216 0.78020524 0.15154668
v 0.56284216 0.77834904 0.14971092
v 0.56250296 0.77868973 0.15120982
v 0.56099360 0.77834904 0.15154669
v 0.56284216 0.78020524 0.15154668
v 0.56250296 0.77868973 0.15120982
v 0.56284216 0.77834904 0.14971092
v -0.65562645 -0.45004427 0.02845340
v -0.65528717 -0.44852873 0.02879026
v -0.65377781 -0.44818812 0.02845339
v -0.65562645 -0.44818811 0.03028915
v -0.65528717 -0.44852873 0.02879026
v -0.65562645 -0.45004427 0.02845340
v -0.65377781 -0.44818812 0.02845339
v -0.65528717 -0.44852873 0.02879026
v -0.65562645 -0.44818811 0.03028915
v -0.65562646 -0.45004414 0.15154801
v -0.65528718 -0.44852860 0.15121114
v -0.65562646 -0.44818799 0.14971224
v -0.65377782 -0.44818798 0.15154801
v -0.65528718 -0.44852860 0.15121114
v -0.65562646 -0.45004414 0.15154801
v -0.65562646 -0.44818799 0.14971224
v -0.65528718 -0.44852860 0.15121114
v -0.65377782 -0.44818798 0.15154801
v 0.56099342 -0.44818849 0.02845350
v 0.56250279 -0.44852914 0.02879036
v 0.56284199 -0.45004464 0.02845350
v 0.56284199 -0.44818849 0.03028925
v 0.56250279 -0.44852914 0.02879036
v 0.56099342 -0.44818849 0.02845350
v 0.56284199 -0.45004464 0.02845350
v 0.56250279 -0.44852914 0.02879036
v 0.56284199 -0.44818849 0.03028925
v 0.56284198 -0.45004451 0.15154811
v 0.56250278 -0.44852901 0.15121125
v 0.56099341 -0.44818836 0.15154811
v 0.56284198 -0.44818836 0.14971235
v 0.56250278 -0.44852901 0.15121125
v 0.56284198 -0.45004451 0.15154811
v 0.56099341 -0.44818836 0.15154811
v 0.56250278 -0.44852901 0.15121125
v 0.56284198 -0.44818836 0.14971235
v -0.65377785 -0.53415053 0.02845349
v -0.65528721 -0.53380987 0.02879036
v -0.65562649 -0.53229437 0.02845349
v -0.65562649 -0.53415052 0.03028925
v -0.65528721 -0.53380987 0.02879036
v -0.65377785 -0.53415053 0.02845349
v -0.65562649 -0.53229437 0.02845349
v -0.65528721 -0.53380987 0.02879036
v -0.65562649 -0.53415052 0.03028925
v -0.65562650 -0.53229428 0.15154810
v -0.65528723 -0.53380978 0.15121123
v -0.65377786 -0.53415043 0.15154810
v -0.65562650 -0.53415043 0.14971233
v -0.65528723 -0.53380978 0.15121123
v -0.65562650 -0.53229428 0.15154810
v -0.65377786 -0.53415043 0.15154810
v -0.65528723 -0.53380978 0.15121123
v -0.65562650 -0.53415043 0.14971233
v 0.56284194 -0.53229463 0.02845360
v 0.56250274 -0.53381013 0.02879046
v 0.56099338 -0.53415078 0.02845360
v 0.56284194 -0.53415078 0.03028935
v 0.56250274 -0.53381013 0.02879046
v 0.56284194 -0.53229463 0.02845360
v 0.56099338 -0.53415078 0.02845360
v 0.56250274 -0.53381013 0.02879046
v 0.56284194 -0.53415078 0.03028935
v 0.56099337 -0.53415061 0.15154821
v 0.56250273 -0.53380996 0.15121134
v 0.56284193 -0.53229446 0.15154821
v 0.56284193 -0.53415062 0.14971244
v 0.56250273 -0.53380996 0.15121134
v 0.56099337 -0.53415061 0.15154821
v 0.56284193 -0.53229446 0.15154821
v 0.56250273 -0.53380996 0.15121134
v 0.56284193 -0.53415062 0.14971244
v 0.56099366 0.86431126 0.00075963
v 0.56250298 0.86397061 0.00109650
v 0.56284218 0.86245511 0.00075963
v 0.56284218 0.86431126 0.00259539
v 0.56250298 0.86397061 0.00109650
v 0.56099366 0.86431126 0.00075963
v 0.56284218 0.86245511 0.00075963
v 0.56250298 0.86397061 0.00109650
v 0.56284218 0.86431126 0.00259539
v 0.56099365 0.86431128 0.02693116
v 0.56250298 0.86397063 0.02659430
v 0.56284218 0.86431128 0.02509540
v 0.56284218 0.86245513 0.02693116
v 0.56250298 0.86397063 0.02659430
v 0.56099365 0.86431128 0.02693116
v 0.56284218 0.86431128 0.02509540
v 0.56250298 0.86397063 0.02659430
v 0.56284218 0.86245513 0.02693116
v 0.56284191 -0.53229465 0.00076125
v 0.56250270 -0.53381015 0.00109812
v 0.56099338 -0.53415081 0.00076126
v 0.56284191 -0.53415080 0.00259701
v 0.56250270 -0.53381015 0.00109812
v 0.56284191 -0.53229465 0.00076125
v 0.56099338 -0.53415081 0.00076126
v 0.56250270 -0.53381015 0.00109812
v 0.56284191 -0.53415080 0.00259701
v 0.56099338 -0.53415079 0.02693279
v 0.56250270 -0.53381013 0.02659592
v 0.56284191 -0.53229463 0.02693278
v 0.56284191 -0.53415079 0.02509703
v 0.56250270 -0.53381013 0.02659592
v 0.56099338 -0.53415079 0.02693279
v 0.56284191 -0.53229463 0.02693278
v 0.56250270 -0.53381013 0.02659592
v 0.56284191 -0.53415079 0.02509703
v -0.65562603 0.86245536 0.00075955
v -0.65528682 0.86397087 0.00109642
v -0.65377746 0.86431152 0.00075955
v -0.65562603 0.86431152 0.00259531
v -0.65528682 0.86397087 0.00109642
v -0.65562603 0.86245536 0.00075955
v -0.65377746 0.86431152 0.00075955
v -0.65528682 0.86397087 0.00109642
v -0.65562603 0.86431152 0.00259531
v -0.65377746 0.86431154 0.02693108
v -0.65528683 0.86397089 0.02659421
v -0.65562603 0.86245538 0.02693108
v -0.65562603 0.86431154 0.02509532
v -0.65528683 0.86397089 0.02659421
v -0.65377746 0.86431154 0.02693108
v -0.65562603 0.86245538 0.02693108
v -0.65528683 0.86397089 0.02659421
v -0.65562603 0.86431154 0.02509532
v -0.65377774 -0.53415055 0.00076117
v -0.65528710 -0.53380989 0.00109804
v -0.65562630 -0.53229439 0.00076117
v -0.65562630 -0.53415055 0.00259693
v -0.65528710 -0.53380989 0.00109804
v -0.65377774 -0.53415055 0.00076117
v -0.65562630 -0.53229439 0.00076117
v -0.65528710 -0.53380989 0.00109804
v -0.65562630 -0.53415055 0.00259693
v -0.65562630 -0.53229437 0.02693270
v -0.65528710 -0.53380987 0.02659583
v -0.65377774 -0.53415053 0.02693270
v -0.65562630 -0.53415053 0.02509694
v -0.65528710 -0.53380987 0.02659583
v -0.65562630 -0.53229437 0.02693270
v -0.65377774 -0.53415053 0.02693270
v -0.65528710 -0.53380987 0.02659583
v -0.65562630 -0.53415053 0.02509694
vn -0.96720692 -0.17862604 -0.18056442
vn -0.96720729 -0.17862561 0.18056288
vn -0.96720720 0.17862655 0.18056244
vn -0.96720683 0.17862616 -0.18056478
vn 0.17991996 -0.96685794 -0.18114781
vn 0.17991992 -0.96685772 0.18114901
vn -0.17991665 -0.96685870 0.18114704
vn -0.17991664 -0.96685871 -0.18114699
vn 0.17835849 -0.17764766 0.96779624
vn 0.17835854 0.17764996 0.96779581
vn -0.17835484 0.17764892 0.96779668
vn -0.17835494 -0.17764660 0.96779709
vn -0.17991602 0.96685853 -0.18114856
vn -0.17991603 0.96685922 0.18114490
vn 0.17992023 0.96685842 0.18114497
vn 0.17992029 0.96685753 -0.18114966
vn 0.96720446 0.17863253 -0.18057117
vn 0.96720482 0.17863280 0.18056899
vn 0.96720475 -0.17863237 0.18056976
vn 0.96720451 -0.17863267 -0.18057078
vn 0.17837762 -0.17766506 -0.96778952
vn -0.17837342 -0.17767297 -0.96778884
vn -0.17837130 0.17765647 -0.96779226
vn 0.17837553 0.17766529 -0.96778986
vn -0.17993377 0.96685297 -0.18116062
vn -0.17993405 0.96685350 0.18115755
vn 0.17993786 0.96685280 0.18115748
vn 0.17993743 0.96685235 -0.18116028
vn -0.96720001 -0.17864706 -0.18058062
vn -0.96720030 -0.17864696 0.18057920
vn -0.96720024 0.17864759 0.18057888
vn -0.96719997 0.17864699 -0.18058095
vn 0.17837021 0.17765122 -0.96779342
vn 0.17837307 -0.17765700 -0.96779184
vn -0.17835693 -0.17765075 -0.96779596
vn -0.17835607 0.17766063 -0.96779430
vn -0.17836814 -0.17765938 0.96779231
vn 0.17837133 -0.17765064 0.96779333
vn 0.17837162 0.17766988 0.96778974
vn -0.17836807 0.17766131 0.96779197
vn 0.96720001 0.17864686 -0.18058082
vn 0.96719981 0.17864872 0.18058009
vn 0.96720067 -0.17864583 0.18057833
vn 0.96720011 -0.17864699 -0.18058019
vn 0.17993734 -0.96685260 -0.18115903
vn 0.17993756 -0.96685258 0.18115895
vn -0.17993434 -0.96685317 0.18115901
vn -0.17993406 -0.96685319 -0.18115915
vn -0.96720565 -0.17862560 -0.18057166
vn -0.96720605 -0.17862511 0.18057003
vn -0.96720372 0.17863880 0.18056896
vn -0.96720338 0.17863839 -0.18057115
vn 0.17993313 -0.96685430 -0.18115415
vn 0.17993307 -0.96685431 0.18115419
vn -0.17991253 -0.96685891 0.18115001
vn -0.17991253 -0.96685891 -0.18115003
vn 0.17837231 0.17765659 -0.96779205
vn 0.17837270 -0.17766334 -0.96779074
vn -0.17835415 -0.17764871 -0.96779685
vn -0.17835374 0.17764875 -0.96779691
vn 0.17836808 -0.17764983 0.96779407
vn 0.17836523 0.17764878 0.96779479
vn -0.17835143 0.17765819 0.96779561
vn -0.17835228 -0.17764358 0.96779813
vn -0.17992086 0.96685541 -0.18116041
vn -0.17992089 0.96685602 0.18115713
vn 0.17993322 0.96685466 0.18115215
vn 0.17993328 0.96685394 -0.18115596
vn 0.96720001 0.17864383 -0.18058383
vn 0.96720029 0.17864433 0.18058185
vn 0.96719911 -0.17864727 0.18058524
vn 0.96719878 -0.17864776 -0.18058653
vn -0.96720655 -0.17862352 -0.18056888
vn -0.96720695 -0.17862307 0.18056720
vn -0.96720636 0.17862689 0.18056658
vn -0.96720602 0.17862643 -0.18056883
vn 0.17993746 -0.96685271 -0.18115837
vn 0.17993741 -0.96685265 0.18115871
vn -0.17990802 -0.96686062 0.18114538
vn -0.17990804 -0.96686056 -0.18114570
vn 0.17836772 -0.17765616 0.96779298
vn 0.17836732 0.17765415 0.96779342
vn -0.17834909 0.17764632 0.96779822
vn -0.17834949 -0.17764153 0.96779902
vn -0.17989887 0.96686362 -0.18113847
vn -0.17989891 0.96686428 0.18113487
vn 0.17993773 0.96685296 0.18115677
vn 0.17993775 0.96685229 -0.18116030
vn 0.96719863 0.17864924 -0.18058590
vn 0.96719890 0.17864970 0.18058398
vn 0.96719800 -0.17865361 0.18058491
vn 0.96719768 -0.17865414 -0.18058613
vn 0.17837323 -0.17766275 -0.96779075
vn -0.17836949 -0.17766298 -0.96779140
vn -0.17836947 0.17766082 -0.96779180
vn 0.17837304 0.17766076 -0.96779115
vn -0.17993383 0.96685312 -0.18115975
vn -0.17993391 0.96685338 0.18115829
vn 0.17993763 0.96685271 0.18115816
vn 0.17993769 0.96685242 -0.18115967
vn -0.96720017 -0.17864714 -0.18057972
vn -0.96720021 -0.17864674 0.18057988
vn -0.96720010 0.17864754 0.18057969
vn -0.96720014 0.17864701 -0.18057998
vn -0.17837019 -0.17766088 0.96779165
vn 0.17837335 -0.17766072 0.96779110
vn 0.17837384 0.17766347 0.96779051
vn -0.17837013 0.17766390 0.96779111
vn 0.96720020 0.17864678 -0.18057992
vn 0.96720018 0.17864709 0.18057973
vn 0.96720015 -0.17864696 0.18058000
vn 0.96720014 -0.17864741 -0.18057961
vn 0.17993741 -0.96685278 -0.18115804
vn 0.17993738 -0.96685248 0.18115964
vn -0.17993420 -0.96685305 0.18115976
vn -0.17993410 -0.96685337 -0.18115818
vn -0.17835944 0.17765138 -0.96779538
vn -0.37689290 0.13552324 -0.91628882
vn -0.32329506 0.32219381 -0.88975921
vn -0.13604692 0.37555492 -0.91676046
vn -0.91562424 0.37770758 -0.13772882
vn -0.88780676 0.32392213 -0.32691531
vn -0.91432139 0.13631180 -0.38136006
vn -0.13730972 0.91363613 -0.38264221
vn -0.32604786 0.88664971 -0.32794068
vn -0.38032598 0.91446805 -0.13820398
vn -0.91432285 0.13631247 0.38135632
vn -0.88780786 0.32392205 0.32691238
vn -0.91562454 0.37770737 0.13772744
vn -0.13604692 0.37554504 0.91676451
vn -0.32328953 0.32218944 0.88976280
vn -0.37688123 0.13552465 0.91629341
vn -0.38032560 0.91446856 0.13820161
vn -0.32604734 0.88665126 0.32793699
vn -0.13730974 0.91363813 0.38263742
vn 0.17836353 0.17765288 -0.96779435
vn 0.13604128 0.37556081 -0.91675888
vn 0.32329557 0.32220071 -0.88975653
vn 0.37689969 0.13552404 -0.91628590
vn 0.38033283 0.91446513 -0.13820440
vn 0.32604831 0.88664724 -0.32794689
vn 0.13730403 0.91363483 -0.38264736
vn 0.91431463 0.13631337 -0.38137569
vn 0.88780038 0.32393117 -0.32692366
vn 0.91561755 0.37772344 -0.13772985
vn 0.37688739 0.13552564 0.91629073
vn 0.32328931 0.32219595 0.88976052
vn 0.13604089 0.37555012 0.91676332
vn 0.91561784 0.37772325 0.13772841
vn 0.88780167 0.32393113 0.32692020
vn 0.91431606 0.13631423 0.38137195
vn 0.13730377 0.91363770 0.38264061
vn 0.32604775 0.88664962 0.32794103
vn 0.38033247 0.91446582 0.13820083
vn -0.17835966 -0.17765375 -0.96779490
vn -0.13604750 -0.37555708 -0.91675949
vn -0.32329602 -0.32219581 -0.88975814
vn -0.37689319 -0.13552517 -0.91628841
vn -0.38032609 -0.91446807 -0.13820354
vn -0.32604911 -0.88664933 -0.32794045
vn -0.13731139 -0.91363649 -0.38264075
vn -0.91432145 -0.13631291 -0.38135952
vn -0.88780681 -0.32392240 -0.32691488
vn -0.91562463 -0.37770679 -0.13772845
vn -0.37688095 -0.13552331 0.91629372
vn -0.32328965 -0.32218797 0.88976329
vn -0.13604737 -0.37554278 0.91676537
vn -0.91562489 -0.37770615 0.13772847
vn -0.88780792 -0.32392133 0.32691293
vn -0.91432294 -0.13631215 0.38135620
vn -0.13731141 -0.91363734 0.38263873
vn -0.32604859 -0.88664989 0.32793945
vn -0.38032567 -0.91446806 0.13820474
vn 0.17836348 -0.17765436 -0.96779409
vn 0.37689967 -0.13552552 -0.91628570
vn 0.32329545 -0.32220138 -0.88975633
vn 0.13604110 -0.37556141 -0.91675866
vn 0.91561785 -0.37772299 -0.13772909
vn 0.88780062 -0.32393109 -0.32692310
vn 0.91431464 -0.13631385 -0.38137550
vn 0.13730370 -0.91363546 -0.38264598
vn 0.32604816 -0.88664780 -0.32794555
vn 0.38033269 -0.91446546 -0.13820262
vn 0.13604071 -0.37554793 0.91676424
vn 0.32328919 -0.32219392 0.88976130
vn 0.37688741 -0.13552347 0.91629104
vn 0.38033215 -0.91446528 0.13820530
vn 0.32604746 -0.88664754 0.32794695
vn 0.13730373 -0.91363543 0.38264603
vn 0.91431590 -0.13631291 0.38137281
vn 0.88780131 -0.32392999 0.32692230
vn 0.91561801 -0.37772232 0.13772983
vn 0.13605113 0.37558397 -0.91674793
vn 0.32332146 0.32221704 -0.88974121
vn 0.37692574 0.13552646 -0.91627483
vn 0.38036364 0.91444998 -0.13821989
vn 0.32608064 0.88662683 -0.32796994
vn 0.13732448 0.91362389 -0.38266613
vn 0.91430496 0.13631497 -0.38139831
vn 0.88778602 0.32394917 -0.32694481
vn 0.91560511 0.37775159 -0.13773535
vn 0.13732579 0.91362572 0.38266131
vn 0.32608224 0.88662733 0.32796699
vn 0.38036361 0.91445019 0.13821857
vn 0.37691278 0.13554070 0.91627805
vn 0.32331877 0.32222979 0.88973757
vn 0.13605634 0.37558507 0.91674671
vn 0.91560447 0.37775367 0.13773384
vn 0.88778420 0.32395635 0.32694265
vn 0.91430581 0.13631943 0.38139468
vn 0.37692986 -0.13552597 -0.91627321
vn 0.32332608 -0.32221378 -0.88974071
vn 0.13605341 -0.37558123 -0.91674872
vn 0.91560534 -0.37775067 -0.13773629
vn 0.88778656 -0.32394742 -0.32694510
vn 0.91430501 -0.13631515 -0.38139813
vn 0.13732500 -0.91362441 -0.38266471
vn 0.32608145 -0.88662678 -0.32796926
vn 0.38036343 -0.91445015 -0.13821930
vn 0.13605384 -0.37555157 0.91676080
vn 0.32331961 -0.32219211 0.88975090
vn 0.37691389 -0.13551766 0.91628101
vn 0.38036345 -0.91445005 0.13821996
vn 0.32608209 -0.88662689 0.32796833
vn 0.13732550 -0.91362518 0.38266270
vn 0.91430660 -0.13631260 0.38139522
vn 0.88778888 -0.32394257 0.32694359
vn 0.91560603 -0.37774863 0.13773733
vn -0.37691399 0.13552896 -0.91627929
vn -0.32331093 0.32220809 -0.88974827
vn -0.13604919 0.37556684 -0.91675524
vn -0.91560512 0.37775109 -0.13773666
vn -0.88778591 0.32394861 -0.32694569
vn -0.91430486 0.13631524 -0.38139846
vn -0.13732181 0.91362423 -0.38266628
vn -0.32607547 0.88662867 -0.32797010
vn -0.38035674 0.91445279 -0.13822026
vn -0.13605208 0.37556919 0.91675384
vn -0.32331342 0.32221109 0.88974628
vn -0.37690685 0.13552964 0.91628213
vn -0.38035681 0.91445310 0.13821801
vn -0.32607622 0.88662978 0.32796636
vn -0.13732243 0.91362616 0.38266146
vn -0.91430624 0.13631650 0.38139468
vn -0.88778657 0.32394979 0.32694272
vn -0.91560524 0.37775134 0.13773514
vn -0.13605125 -0.37559453 -0.91674359
vn -0.32332452 -0.32222159 -0.88973845
vn -0.37692387 -0.13552486 -0.91627584
vn -0.38035690 -0.91445293 -0.13821887
vn -0.32607562 -0.88662911 -0.32796876
vn -0.13732209 -0.91362477 -0.38266489
vn -0.91430488 -0.13631568 -0.38139825
vn -0.88778596 -0.32394895 -0.32694520
vn -0.91560518 -0.37775113 -0.13773609
vn -0.37690689 -0.13552775 0.91628239
vn -0.32331348 -0.32220968 0.88974677
vn -0.13605218 -0.37556777 0.91675441
vn -0.91560531 -0.37775097 0.13773571
vn -0.88778663 -0.32394914 0.32694321
vn -0.91430630 -0.13631553 0.38139490
vn -0.13732271 -0.91362554 0.38266284
vn -0.32607637 -0.88662922 0.32796771
vn -0.38035697 -0.91445283 0.13821940
vn -0.37688411 0.13552855 -0.91629165
vn -0.32330005 0.32220780 -0.88975233
vn -0.13605167 0.37556605 -0.91675520
vn -0.91561612 0.37771764 -0.13775521
vn -0.88778680 0.32394736 -0.32694449
vn -0.91431669 0.13633392 -0.38136342
vn -0.13732440 0.91362664 -0.38265960
vn -0.32606208 0.88663420 -0.32796847
vn -0.38032963 0.91446351 -0.13822397
vn -0.91431813 0.13633477 0.38135966
vn -0.88778776 0.32394771 0.32694154
vn -0.91561635 0.37771758 0.13775387
vn -0.13605170 0.37555636 0.91675916
vn -0.32329408 0.32220418 0.88975581
vn -0.37687210 0.13553074 0.91629626
vn -0.38032922 0.91446397 0.13822200
vn -0.32606156 0.88663575 0.32796478
vn -0.13732446 0.91362864 0.38265481
vn 0.13604039 0.37556059 -0.91675910
vn 0.32330152 0.32220013 -0.88975457
vn 0.37691314 0.13552122 -0.91628079
vn 0.38036462 0.91445277 -0.13819876
vn 0.32606070 0.88664001 -0.32795413
vn 0.13729897 0.91362685 -0.38266823
vn 0.91430128 0.13631218 -0.38140812
vn 0.88778991 0.32394507 -0.32693832
vn 0.91560502 0.37775379 -0.13772988
vn 0.37690081 0.13552341 0.91628554
vn 0.32329524 0.32219651 0.88975817
vn 0.13604008 0.37555091 0.91676312
vn 0.91560523 0.37775374 0.13772866
vn 0.88779076 0.32394541 0.32693568
vn 0.91430259 0.13631303 0.38140469
vn 0.13729883 0.91362885 0.38266349
vn 0.32606007 0.88664157 0.32795055
vn 0.38036420 0.91445331 0.13819629
vn -0.13605625 -0.37554277 -0.91676405
vn -0.32329985 -0.32219873 -0.88975569
vn -0.37687911 -0.13553433 -0.91629285
vn -0.38029660 -0.91447458 -0.13824160
vn -0.32606207 -0.88663464 -0.32796729
vn -0.13734381 -0.91363826 -0.38262488
vn -0.91431835 -0.13633733 -0.38135822
vn -0.88779126 -0.32393580 -0.32694383
vn -0.91562648 -0.37769124 -0.13775876
vn -0.37686721 -0.13553169 0.91629813
vn -0.32329393 -0.32219013 0.88976096
vn -0.13605612 -0.37552829 0.91677000
vn -0.91562680 -0.37769044 0.13775884
vn -0.88779252 -0.32393431 0.32694190
vn -0.91431987 -0.13633640 0.38135491
vn -0.13734382 -0.91363911 0.38262286
vn -0.32606155 -0.88663520 0.32796629
vn -0.38029617 -0.91447459 0.13824272
vn 0.37691517 -0.13552924 -0.91627877
vn 0.32331578 -0.32220875 -0.88974627
vn 0.13604981 -0.37556352 -0.91675650
vn 0.91560365 -0.37775397 -0.13773846
vn 0.88778242 -0.32395144 -0.32695234
vn 0.91429953 -0.13631863 -0.38141003
vn 0.13732961 -0.91363028 -0.38264904
vn 0.32607797 -0.88662753 -0.32797072
vn 0.38034673 -0.91445578 -0.13822802
vn 0.13604936 -0.37554905 0.91676250
vn 0.32330955 -0.32220016 0.88975165
vn 0.37690295 -0.13552660 0.91628419
vn 0.38034626 -0.91445579 0.13822928
vn 0.32607734 -0.88662809 0.32796983
vn 0.13732949 -0.91363113 0.38264707
vn 0.91430091 -0.13631769 0.38140704
vn 0.88778357 -0.32394995 0.32695071
vn 0.91560392 -0.37775318 0.13773887
vn -0.37687686 0.13552980 -0.91629444
vn -0.32328605 0.32219607 -0.88976167
vn -0.13604708 0.37554647 -0.91676389
vn -0.91562492 0.37769798 -0.13775062
vn -0.88779629 0.32393561 -0.32693039
vn -0.91431954 0.13633522 -0.38135611
vn -0.13731019 0.91364875 -0.38261190
vn -0.32602681 0.88666028 -0.32793303
vn -0.38028213 0.91448540 -0.13820981
vn -0.91432098 0.13633607 0.38135235
vn -0.88779725 0.32393595 0.32692744
vn -0.91562516 0.37769792 0.13774918
vn -0.13604708 0.37553677 0.91676787
vn -0.32328008 0.32219245 0.88976515
vn -0.37686485 0.13553200 0.91629906
vn -0.38028174 0.91448591 0.13820753
vn -0.32602630 0.88666183 0.32792933
vn -0.13731026 0.91365074 0.38260714
vn 0.13604715 0.37556685 -0.91675554
vn 0.32331262 0.32220834 -0.88974757
vn 0.37691529 0.13552593 -0.91627921
vn 0.38036347 0.91445001 -0.13822014
vn 0.32607821 0.88662697 -0.32797198
vn 0.13732036 0.91362412 -0.38266706
vn 0.91429967 0.13631691 -0.38141028
vn 0.88778280 0.32395326 -0.32694952
vn 0.91560142 0.37776006 -0.13773665
vn 0.37690296 0.13552812 0.91628396
vn 0.32330633 0.32220472 0.88975116
vn 0.13604682 0.37555715 0.91675956
vn 0.91560161 0.37776001 0.13773553
vn 0.88778364 0.32395360 0.32694689
vn 0.91430098 0.13631776 0.38140685
vn 0.13732029 0.91362611 0.38266234
vn 0.32607757 0.88662853 0.32796840
vn 0.38036303 0.91445052 0.13821799
vn -0.13604998 -0.37554309 -0.91676485
vn -0.32328653 -0.32219916 -0.88976037
vn -0.37687418 -0.13553722 -0.91629445
vn -0.38029774 -0.91447734 -0.13822022
vn -0.32604456 -0.88664768 -0.32794945
vn -0.13732242 -0.91364099 -0.38262604
vn -0.91431999 -0.13634026 -0.38135324
vn -0.88779604 -0.32393629 -0.32693037
vn -0.91562729 -0.37769157 -0.13775248
vn -0.37686228 -0.13553458 0.91629973
vn -0.32328060 -0.32219057 0.88976564
vn -0.13604986 -0.37552862 0.91677080
vn -0.91562762 -0.37769078 0.13775247
vn -0.88779730 -0.32393479 0.32692844
vn -0.91432151 -0.13633933 0.38134993
vn -0.13732238 -0.91364185 0.38262401
vn -0.32604404 -0.88664824 0.32794844
vn -0.38029734 -0.91447738 0.13822102
vn 0.37691764 -0.13552779 -0.91627797
vn 0.32331589 -0.32221508 -0.88974394
vn 0.13604765 -0.37557685 -0.91675137
vn 0.91559847 -0.37776736 -0.13773624
vn 0.88778007 -0.32395782 -0.32695240
vn 0.91429871 -0.13631716 -0.38141252
vn 0.13732007 -0.91362473 -0.38266571
vn 0.32607805 -0.88662753 -0.32797063
vn 0.38036334 -0.91445035 -0.13821828
vn 0.13604722 -0.37556238 0.91675736
vn 0.32330965 -0.32220648 0.88974932
vn 0.37690541 -0.13552515 0.91628339
vn 0.38036285 -0.91445031 0.13821985
vn 0.32607742 -0.88662809 0.32796974
vn 0.13731996 -0.91362558 0.38266372
vn 0.91430009 -0.13631623 0.38140953
vn 0.88778122 -0.32395633 0.32695078
vn 0.91559872 -0.37776656 0.13773674
vn 0.13605333 0.37557243 -0.91675233
vn 0.32331994 0.32221105 -0.88974393
vn 0.37691815 0.13552640 -0.91627796
vn 0.38036365 0.91444996 -0.13822000
vn 0.32608163 0.88662672 -0.32796924
vn 0.13732528 0.91362447 -0.38266446
vn 0.91430567 0.13631500 -0.38139660
vn 0.88778651 0.32394851 -0.32694413
vn 0.91560529 0.37775098 -0.13773582
vn 0.13732510 0.91362510 0.38266304
vn 0.32608141 0.88662733 0.32796782
vn 0.38036361 0.91445019 0.13821857
vn 0.37692053 0.13552787 0.91627677
vn 0.32332087 0.32221327 0.88974278
vn 0.13605299 0.37557618 0.91675085
vn 0.91560528 0.37775118 0.13773530
vn 0.88778656 0.32394881 0.32694370
vn 0.91430560 0.13631556 0.38139657
vn 0.37691863 -0.13552833 -0.91627748
vn 0.32332040 -0.32221253 -0.88974322
vn 0.13605349 -0.37557399 -0.91675167
vn 0.91560521 -0.37775139 -0.13773518
vn 0.88778645 -0.32394921 -0.32694362
vn 0.91430560 -0.13631598 -0.38139641
vn 0.13732505 -0.91362523 -0.38266273
vn 0.32608150 -0.88662734 -0.32796770
vn 0.38036345 -0.91445025 -0.13821860
vn 0.13605274 -0.37557280 0.91675227
vn 0.32332029 -0.32221029 0.88974408
vn 0.37691955 -0.13552544 0.91627753
vn 0.38036362 -0.91445002 0.13821967
vn 0.32608144 -0.88662689 0.32796898
vn 0.13732482 -0.91362455 0.38266443
vn 0.91430560 -0.13631492 0.38139679
vn 0.88778666 -0.32394823 0.32694403
vn 0.91560524 -0.37775114 0.13773567
vn -0.37691179 0.13552571 -0.91628068
vn -0.32331409 0.32221022 -0.88974635
vn -0.13604998 0.37557255 -0.91675278
vn -0.91560523 0.37775107 -0.13773596
vn -0.88778652 0.32394845 -0.32694417
vn -0.91430563 0.13631516 -0.38139663
vn -0.13732180 0.91362495 -0.38266458
vn -0.32607551 0.88662920 -0.32796864
vn -0.38035682 0.91445287 -0.13821950
vn -0.13605060 0.37557633 0.91675114
vn -0.32331505 0.32221390 0.88974467
vn -0.37691296 0.13552874 0.91627975
vn -0.38035697 0.91445305 0.13821792
vn -0.32607581 0.88662962 0.32796718
vn -0.13732195 0.91362551 0.38266318
vn -0.91430558 0.13631622 0.38139638
vn -0.88778627 0.32394980 0.32694352
vn -0.91560514 0.37775165 0.13773496
vn -0.13605002 -0.37557464 -0.91675192
vn -0.32331398 -0.32221226 -0.88974565
vn -0.37691171 -0.13552779 -0.91628040
vn -0.38035690 -0.91445304 -0.13821814
vn -0.32607552 -0.88662972 -0.32796721
vn -0.13732203 -0.91362556 -0.38266303
vn -0.91430562 -0.13631572 -0.38139646
vn -0.88778648 -0.32394907 -0.32694368
vn -0.91560526 -0.37775123 -0.13773531
vn -0.37691307 -0.13552552 0.91628018
vn -0.32331516 -0.32221022 0.88974596
vn -0.13605055 -0.37557290 0.91675255
vn -0.91560531 -0.37775097 0.13773571
vn -0.88778662 -0.32394831 0.32694404
vn -0.91430568 -0.13631485 0.38139662
vn -0.13732223 -0.91362489 0.38266456
vn -0.32607597 -0.88662907 0.32796853
vn -0.38035713 -0.91445278 0.13821931
vt 0.73693848 0.00051928
vt 0.73697853 0.03173018
vt 0.71548271 0.03175777
vt 0.71544272 0.00054687
vt 0.13716389 0.36729574
vt 0.16837487 0.36732191
vt 0.16810896 0.68479979
vt 0.13689797 0.68477374
vt 0.96070099 0.43669510
vt 0.98219681 0.43670893
vt 0.98199236 0.75418687
vt 0.96049649 0.75417298
vt 0.06582551 0.68472743
vt 0.03461462 0.68468601
vt 0.03503633 0.36720836
vt 0.06624722 0.36724985
vt 0.66342229 0.00051934
vt 0.66346234 0.03173018
vt 0.64196664 0.03175777
vt 0.64192659 0.00054693
vt 0.63870138 0.36530936
vt 0.32122344 0.36503923
vt 0.32153359 0.00052416
vt 0.63901156 0.00079429
vt 0.66484976 0.98546094
vt 0.65896952 0.98544812
vt 0.65966469 0.66797137
vt 0.66554493 0.66798425
vt 0.30329618 0.36743855
vt 0.30917650 0.36744165
vt 0.30898851 0.73195690
vt 0.30310819 0.73195392
vt 0.20540975 0.36735237
vt 0.22690557 0.36737400
vt 0.22658683 0.68485212
vt 0.20509095 0.68483049
vt 0.31815535 0.36517429
vt 0.00067744 0.36517429
vt 0.00067744 0.00065923
vt 0.31815535 0.00065923
vt 0.31181887 0.36744535
vt 0.31769919 0.36744833
vt 0.31751212 0.73196399
vt 0.31163180 0.73196095
vt 0.64048940 0.66796672
vt 0.64636976 0.66797966
vt 0.64567161 0.98545653
vt 0.63979131 0.98544353
vt 0.78594929 0.00051928
vt 0.78598130 0.03173023
vt 0.76448554 0.03175229
vt 0.76445347 0.00054133
vt 0.06897521 0.36723769
vt 0.10018621 0.36726385
vt 0.09992002 0.68474191
vt 0.06870902 0.68471575
vt 0.96176636 0.00052190
vt 0.98326224 0.00053579
vt 0.98305780 0.31801379
vt 0.96156192 0.31799996
vt 0.27887204 0.36741531
vt 0.30036789 0.36743319
vt 0.30010301 0.68491107
vt 0.27860719 0.68489319
vt 0.03173106 0.68470025
vt 0.00052015 0.68465692
vt 0.00096068 0.36717939
vt 0.03217159 0.36722267
vt 0.76144391 0.00051934
vt 0.76147598 0.03173023
vt 0.73998016 0.03175229
vt 0.73994815 0.00054139
vt 0.71243310 0.00051928
vt 0.71247315 0.03173018
vt 0.69097733 0.03175771
vt 0.69093734 0.00054687
vt 0.10306962 0.36726665
vt 0.13428058 0.36729288
vt 0.13401452 0.68477076
vt 0.10280355 0.68474460
vt 0.22991504 0.36737323
vt 0.25141090 0.36739480
vt 0.25109228 0.68487263
vt 0.22959642 0.68485105
vt 0.20220339 0.68482888
vt 0.17099242 0.68480277
vt 0.17125818 0.36732477
vt 0.20246917 0.36735094
vt 0.68792772 0.00051934
vt 0.68796778 0.03173023
vt 0.66647196 0.03175777
vt 0.66643190 0.00054687
vt 0.95833713 0.66590601
vt 0.64085907 0.66582936
vt 0.64094704 0.30131418
vt 0.95842516 0.30139089
vt 0.67443883 0.98546398
vt 0.66855854 0.98545110
vt 0.66925347 0.66797370
vt 0.67513376 0.66798657
vt 0.99359989 0.00052339
vt 0.99948019 0.00052464
vt 0.99940145 0.36503983
vt 0.99352109 0.36503851
vt 0.63763601 0.73196393
vt 0.32015797 0.73188722
vt 0.32024607 0.36737216
vt 0.63772404 0.36744881
vt 0.98507649 0.32007563
vt 0.99095678 0.32007688
vt 0.99087781 0.68459219
vt 0.98499751 0.68459094
vt 0.65007669 0.66796905
vt 0.65595704 0.66798192
vt 0.65526074 0.98545867
vt 0.64938045 0.98544574
vt 0.25410181 0.68487185
vt 0.25409934 0.68539375
vt 0.25366586 0.68530363
vt 0.25357759 0.68487149
vt 0.71491832 0.00054622
vt 0.71500641 0.00011671
vt 0.71544009 0.00002754
vt 0.06634567 0.68472826
vt 0.06625669 0.68516153
vt 0.06582620 0.68525034
vt 0.71548146 0.03227705
vt 0.71504754 0.03218901
vt 0.71495831 0.03175980
vt 0.98251653 0.75418735
vt 0.98242754 0.75461936
vt 0.98199397 0.75470883
vt 0.03461255 0.68520886
vt 0.03418230 0.68511891
vt 0.03409446 0.68468547
vt 0.25442043 0.36739415
vt 0.25389621 0.36739349
vt 0.25398535 0.36696148
vt 0.25441900 0.36687219
vt 0.06624929 0.36672699
vt 0.06667954 0.36681694
vt 0.06676738 0.36725044
vt 0.66342360 0.00000000
vt 0.66385752 0.00008804
vt 0.66394675 0.00051731
vt 0.98219913 0.43618703
vt 0.98263258 0.43627703
vt 0.98272103 0.43670917
vt 0.66398680 0.03173083
vt 0.66389871 0.03216034
vt 0.66346496 0.03224951
vt 0.03451617 0.36720753
vt 0.03460515 0.36677432
vt 0.03503564 0.36668551
vt 0.27559760 0.68489343
vt 0.27612185 0.68489408
vt 0.27603269 0.68532610
vt 0.27559906 0.68541539
vt 0.13689616 0.68529660
vt 0.13646586 0.68520683
vt 0.13637786 0.68477345
vt 0.73693979 0.00000000
vt 0.73737371 0.00008804
vt 0.73746294 0.00051731
vt 0.96049422 0.75469488
vt 0.96006078 0.75460494
vt 0.95997226 0.75417280
vt 0.73750293 0.03173089
vt 0.73741484 0.03216034
vt 0.73698109 0.03224957
vt 0.16862907 0.68480045
vt 0.16854034 0.68523371
vt 0.16810988 0.68532276
vt 0.27591625 0.36741567
vt 0.27591869 0.36689383
vt 0.27635217 0.36698395
vt 0.27644047 0.36741614
vt 0.64140213 0.00054628
vt 0.64149022 0.00011677
vt 0.64192396 0.00002760
vt 0.13664378 0.36729521
vt 0.13673250 0.36686194
vt 0.13716297 0.36677289
vt 0.96017683 0.43669462
vt 0.96026576 0.43626261
vt 0.96069938 0.43617320
vt 0.16837668 0.36679900
vt 0.16880699 0.36688876
vt 0.16889499 0.36732221
vt 0.64196539 0.03227711
vt 0.64153141 0.03218901
vt 0.64144218 0.03175980
vt 0.63901210 0.00027013
vt 0.63944477 0.00036019
vt 0.63953388 0.00079465
vt 0.66555274 0.66746294
vt 0.66598058 0.66755366
vt 0.66606510 0.66798526
vt 0.31129909 0.36744499
vt 0.31138489 0.36701214
vt 0.31181264 0.36692196
vt 0.65914452 0.66797012
vt 0.65923101 0.66753870
vt 0.65965927 0.66744953
vt 0.00015509 0.00052363
vt 0.00040007 0.00008935
vt 0.00083285 0.00013506
vt 0.31770602 0.36692554
vt 0.31813368 0.36701578
vt 0.31821901 0.36744857
vt 0.63922369 0.36530989
vt 0.63913381 0.36574417
vt 0.63870108 0.36583352
vt 0.31162497 0.73248380
vt 0.31119731 0.73239356
vt 0.31111199 0.73196083
vt 0.63996929 0.66796547
vt 0.64005572 0.66753405
vt 0.64048398 0.66744488
vt 0.00052177 0.36569846
vt 0.00008915 0.36547327
vt 0.00015509 0.36503887
vt 0.64637750 0.66745842
vt 0.64680535 0.66754913
vt 0.64688981 0.66798073
vt 0.31803191 0.73196435
vt 0.31794611 0.73239720
vt 0.31751835 0.73248738
vt 0.32101122 0.00052363
vt 0.32110113 0.00008935
vt 0.32153392 0.00000000
vt 0.30310136 0.73247671
vt 0.30267376 0.73238647
vt 0.30258837 0.73195368
vt 0.66536993 0.98546219
vt 0.66528344 0.98589361
vt 0.66485518 0.98598284
vt 0.31831104 0.00013506
vt 0.31874368 0.00036025
vt 0.31867772 0.00079471
vt 0.65896171 0.98596936
vt 0.65853387 0.98587865
vt 0.65844935 0.98544705
vt 0.30950832 0.73195726
vt 0.30942255 0.73239011
vt 0.30899474 0.73248023
vt 0.32122284 0.36556339
vt 0.32079020 0.36547327
vt 0.32070106 0.36503887
vt 0.63978356 0.98596483
vt 0.63935572 0.98587418
vt 0.63927120 0.98544258
vt 0.30277637 0.36743820
vt 0.30286214 0.36700541
vt 0.30328992 0.36691523
vt 0.31867772 0.36530989
vt 0.31843275 0.36574417
vt 0.31799996 0.36569846
vt 0.30918333 0.36691880
vt 0.30961093 0.36700904
vt 0.30969632 0.36744177
vt 0.64619178 0.98545778
vt 0.64610535 0.98588920
vt 0.64567709 0.98597836
vt 0.20508850 0.68535244
vt 0.20465502 0.68526232
vt 0.20456679 0.68483013
vt 0.76392913 0.00054055
vt 0.76401734 0.00011104
vt 0.76445103 0.00002199
vt 0.03225121 0.68470114
vt 0.03216223 0.68513435
vt 0.03173175 0.68522316
vt 0.76448417 0.03227156
vt 0.76405025 0.03218341
vt 0.76396114 0.03175414
vt 0.30062717 0.68491173
vt 0.30053815 0.68534368
vt 0.30010450 0.68543309
vt 0.00051803 0.68517983
vt 0.00008777 0.68508983
vt 0.00000000 0.68465638
vt 0.20488553 0.36735177
vt 0.20497468 0.36691976
vt 0.20540832 0.36683047
vt 0.03217371 0.36669981
vt 0.03260397 0.36678982
vt 0.03269174 0.36722326
vt 0.76144528 0.00000000
vt 0.76187921 0.00008816
vt 0.76196831 0.00051749
vt 0.30037025 0.36691129
vt 0.30080375 0.36700141
vt 0.30089211 0.36743355
vt 0.76200032 0.03173101
vt 0.76191217 0.03216052
vt 0.76147842 0.03224963
vt 0.00044053 0.36717856
vt 0.00052950 0.36674535
vt 0.00095999 0.36665648
vt 0.22711101 0.68485278
vt 0.22702186 0.68528479
vt 0.22658822 0.68537408
vt 0.06870719 0.68523866
vt 0.06827693 0.68514889
vt 0.06818893 0.68471545
vt 0.78595066 0.00000000
vt 0.78638458 0.00008816
vt 0.78647375 0.00051743
vt 0.27860484 0.68541509
vt 0.27817133 0.68532509
vt 0.27808300 0.68489289
vt 0.78650570 0.03173101
vt 0.78641748 0.03216052
vt 0.78598374 0.03224957
vt 0.10044011 0.68474251
vt 0.10035142 0.68517578
vt 0.09992094 0.68526489
vt 0.22690804 0.36685216
vt 0.22734152 0.36694229
vt 0.22742975 0.36737442
vt 0.73942369 0.00054061
vt 0.73951197 0.00011110
vt 0.73994565 0.00002205
vt 0.06845511 0.36723709
vt 0.06854381 0.36680382
vt 0.06897429 0.36671484
vt 0.27834785 0.36741471
vt 0.27843690 0.36698270
vt 0.27887055 0.36689335
vt 0.10018799 0.36674100
vt 0.10061830 0.36683071
vt 0.10070630 0.36726415
vt 0.73997879 0.03227162
vt 0.73954487 0.03218347
vt 0.73945576 0.03175420
vt 0.96155965 0.31852186
vt 0.96112615 0.31843185
vt 0.96103776 0.31799972
vt 0.69041294 0.00054622
vt 0.69050103 0.00011671
vt 0.69093472 0.00002754
vt 0.20272352 0.68482941
vt 0.20263480 0.68526274
vt 0.20220433 0.68535173
vt 0.69097602 0.03227705
vt 0.69054210 0.03218901
vt 0.69045293 0.03175974
vt 0.25161645 0.68487328
vt 0.25152734 0.68530530
vt 0.25109372 0.68539459
vt 0.17099062 0.68532562
vt 0.17056030 0.68523580
vt 0.17047232 0.68480247
vt 0.96124220 0.00052142
vt 0.96133119 0.00008941
vt 0.96176475 0.00000000
vt 0.20247099 0.36682802
vt 0.20290130 0.36691785
vt 0.20298927 0.36735123
vt 0.68792897 0.00000000
vt 0.68836290 0.00008804
vt 0.68845218 0.00051737
vt 0.25141332 0.36687291
vt 0.25184679 0.36696309
vt 0.25193506 0.36739522
vt 0.68849218 0.03173089
vt 0.68840402 0.03216034
vt 0.68797034 0.03224957
vt 0.17073806 0.36732423
vt 0.17082681 0.36689091
vt 0.17125726 0.36680192
vt 0.98358202 0.31801426
vt 0.98349303 0.31844628
vt 0.98305941 0.31853580
vt 0.10280171 0.68526751
vt 0.10237139 0.68517768
vt 0.10228340 0.68474430
vt 0.71243435 0.00000000
vt 0.71286827 0.00008804
vt 0.71295756 0.00051731
vt 0.22959395 0.68537295
vt 0.22916047 0.68528283
vt 0.22907218 0.68485069
vt 0.71299756 0.03173083
vt 0.71290946 0.03216034
vt 0.71247572 0.03224957
vt 0.13453461 0.68477130
vt 0.13444586 0.68520457
vt 0.13401543 0.68529367
vt 0.98326451 0.00001389
vt 0.98369801 0.00010389
vt 0.98378640 0.00053596
vt 0.66590750 0.00054622
vt 0.66599566 0.00011677
vt 0.66642934 0.00002754
vt 0.10254952 0.36726618
vt 0.10263821 0.36683285
vt 0.10306870 0.36674380
vt 0.22939081 0.36737263
vt 0.22947995 0.36694062
vt 0.22991361 0.36685133
vt 0.13428241 0.36677003
vt 0.13471273 0.36685979
vt 0.13480073 0.36729318
vt 0.66647071 0.03227711
vt 0.66603678 0.03218901
vt 0.66594756 0.03175974
vt 0.95842540 0.30086666
vt 0.95885807 0.30095649
vt 0.95894742 0.30139089
vt 0.67514151 0.66746527
vt 0.67556936 0.66755599
vt 0.67565387 0.66798759
vt 0.98455667 0.32007539
vt 0.98464239 0.31964254
vt 0.98507011 0.31955224
vt 0.66873336 0.66797245
vt 0.66881979 0.66754103
vt 0.66924804 0.66745186
vt 0.31972370 0.36737192
vt 0.31981334 0.36693752
vt 0.32024604 0.36684793
vt 0.99096352 0.31955409
vt 0.99139118 0.31964421
vt 0.99147660 0.32007694
vt 0.95885944 0.66590625
vt 0.95876980 0.66634059
vt 0.95833713 0.66643018
vt 0.98499078 0.68511373
vt 0.98456311 0.68502361
vt 0.98447770 0.68459088
vt 0.64955664 0.66796780
vt 0.64964300 0.66753638
vt 0.65007132 0.66744721
vt 0.32015771 0.73241138
vt 0.31972504 0.73232162
vt 0.31963560 0.73188722
vt 0.65596473 0.66746068
vt 0.65639269 0.66755134
vt 0.65647715 0.66798300
vt 0.99139762 0.68459237
vt 0.99131191 0.68502527
vt 0.99088418 0.68511558
vt 0.64042473 0.30131394
vt 0.64051431 0.30087960
vt 0.64094704 0.30079001
vt 0.99351448 0.36556137
vt 0.99308676 0.36547124
vt 0.99300128 0.36503851
vt 0.67495894 0.98546523
vt 0.67487258 0.98589665
vt 0.67444426 0.98598588
vt 0.63772434 0.36692464
vt 0.63815701 0.36701447
vt 0.63824642 0.36744887
vt 0.66855079 0.98597240
vt 0.66812295 0.98588175
vt 0.66803843 0.98545009
vt 0.99992126 0.36504006
vt 0.99983561 0.36547291
vt 0.99940783 0.36556315
vt 0.64085877 0.66635352
vt 0.64042610 0.66626370
vt 0.64033669 0.66582930
vt 0.64937270 0.98596704
vt 0.64894480 0.98587638
vt 0.64886028 0.98544472
vt 0.99308008 0.00052315
vt 0.99316573 0.00009030
vt 0.99359345 0.00000000
vt 0.63815838 0.73196417
vt 0.63806874 0.73239851
vt 0.63763601 0.73248816
vt 0.99948686 0.00000179
vt 0.99991453 0.00009191
vt 1.00000000 0.00052464
vt 0.65578085 0.98545992
vt 0.65569443 0.98589134
vt 0.65526617 0.98598051
f 1/1/1 2/2/2 3/3/3
f 1/1/1 3/3/3 4/4/4
f 5/5/5 6/6/6 7/7/7
f 5/5/5 7/7/7 8/8/8
f 9/9/9 10/10/10 11/11/11
f 9/9/9 11/11/11 12/12/12
f 13/13/13 14/14/14 15/15/15
f 13/13/13 15/15/15 16/16/16
f 17/17/17 18/18/18 19/19/19
f 17/17/17 19/19/19 20/20/20
f 21/21/21 22/22/22 23/23/23
f 21/21/21 23/23/23 24/24/24
f 25/25/25 26/26/26 27/27/27
f 25/25/25 27/27/27 28/28/28
f 29/29/29 30/30/30 31/31/31
f 29/29/29 31/31/31 32/32/32
f 33/33/33 34/34/34 35/35/35
f 33/33/33 35/35/35 36/36/36
f 37/37/37 38/38/38 39/39/39
f 37/37/37 39/39/39 40/40/40
f 41/41/41 42/42/42 43/43/43
f 41/41/41 43/43/43 44/44/44
f 45/45/45 46/46/46 47/47/47
f 45/45/45 47/47/47 48/48/48
f 49/49/49 50/50/50 51/51/51
f 49/49/49 51/51/51 52/52/52
f 53/53/53 54/54/54 55/55/55
f 53/53/53 55/55/55 56/56/56
f 57/57/57 58/58/58 59/59/59
f 57/57/57 59/59/59 60/60/60
f 61/61/61 62/62/62 63/63/63
f 61/61/61 63/63/63 64/64/64
f 65/65/65 66/66/66 67/67/67
f 65/65/65 67/67/67 68/68/68
f 69/69/69 70/70/70 71/71/71
f 69/69/69 71/71/71 72/72/72
f 73/73/73 74/74/74 75/75/75
f 73/73/73 75/75/75 76/76/76
f 77/77/77 78/78/78 79/79/79
f 77/77/77 79/79/79 80/80/80
f 81/81/81 82/82/82 83/83/83
f 81/81/81 83/83/83 84/84/84
f 85/85/85 86/86/86 87/87/87
f 85/85/85 87/87/87 88/88/88
f 89/89/89 90/90/90 91/91/91
f 89/89/89 91/91/91 92/92/92
f 93/93/93 94/94/94 95/95/95
f 93/93/93 95/95/95 96/96/96
f 97/97/97 98/98/98 99/99/99
f 97/97/97 99/99/99 100/100/100
f 101/101/101 102/102/102 103/103/103
f 101/101/101 103/103/103 104/104/104
f 105/105/105 106/106/106 107/107/107
f 105/105/105 107/107/107 108/108/108
f 109/109/109 110/110/110 111/111/111
f 109/109/109 111/111/111 112/112/112
f 113/113/113 114/114/114 115/115/115
f 113/113/113 115/115/115 116/116/116
f 117/117/117 118/118/118 119/119/119
f 117/117/117 119/119/119 120/120/120
f 4/4/4 121/121/121 122/122/122
f 4/4/4 122/122/122 123/123/123
f 13/13/13 124/124/124 125/125/125
f 13/13/13 125/125/125 126/126/126
f 3/3/3 127/127/127 128/128/128
f 3/3/3 128/128/128 129/129/129
f 11/11/11 130/130/130 131/131/131
f 11/11/11 131/131/131 132/132/132
f 14/14/14 133/133/133 134/134/134
f 14/14/14 134/134/134 135/135/135
f 136/136/136 137/137/137 138/138/138
f 136/136/136 138/138/138 139/139/139
f 16/16/16 140/140/140 141/141/141
f 16/16/16 141/141/141 142/142/142
f 17/17/17 143/143/143 144/144/144
f 17/17/17 144/144/144 145/145/145
f 10/10/10 146/146/146 147/147/147
f 10/10/10 147/147/147 148/148/148
f 18/18/18 149/149/149 150/150/150
f 18/18/18 150/150/150 151/151/151
f 15/15/15 152/152/152 153/153/153
f 15/15/15 153/153/153 154/154/154
f 155/155/155 156/156/156 157/157/157
f 155/155/155 157/157/157 158/158/158
f 8/8/8 159/159/159 160/160/160
f 8/8/8 160/160/160 161/161/161
f 1/1/1 162/162/162 163/163/163
f 1/1/1 163/163/163 164/164/164
f 12/12/12 165/165/165 166/166/166
f 12/12/12 166/166/166 167/167/167
f 2/2/2 168/168/168 169/169/169
f 2/2/2 169/169/169 170/170/170
f 7/7/7 171/171/171 172/172/172
f 7/7/7 172/172/172 173/173/173
f 174/174/174 175/175/175 176/176/176
f 174/174/174 176/176/176 177/177/177
f 20/20/20 178/178/178 179/179/179
f 20/20/20 179/179/179 180/180/180
f 5/5/5 181/181/181 182/182/182
f 5/5/5 182/182/182 183/183/183
f 9/9/9 184/184/184 185/185/185
f 9/9/9 185/185/185 186/186/186
f 6/6/6 187/187/187 188/188/188
f 6/6/6 188/188/188 189/189/189
f 19/19/19 190/190/190 191/191/191
f 19/19/19 191/191/191 192/192/192
f 24/24/24 193/193/193 194/194/194
f 24/24/24 194/194/194 195/195/195
f 28/28/28 196/196/196 197/197/197
f 28/28/28 197/197/197 198/198/198
f 41/41/41 199/199/199 200/200/200
f 41/41/41 200/200/200 201/201/201
f 27/27/27 202/202/202 203/203/203
f 27/27/27 203/203/203 204/204/204
f 39/39/39 205/205/205 206/206/206
f 39/39/39 206/206/206 207/207/207
f 42/42/42 208/208/208 209/209/209
f 42/42/42 209/209/209 210/210/210
f 21/21/21 211/211/211 212/212/212
f 21/21/21 212/212/212 213/213/213
f 44/44/44 214/214/214 215/215/215
f 44/44/44 215/215/215 216/216/216
f 45/45/45 217/217/217 218/218/218
f 45/45/45 218/218/218 219/219/219
f 38/38/38 220/220/220 221/221/221
f 38/38/38 221/221/221 222/222/222
f 46/46/46 223/223/223 224/224/224
f 46/46/46 224/224/224 225/225/225
f 43/43/43 226/226/226 227/227/227
f 43/43/43 227/227/227 228/228/228
f 23/23/23 229/229/229 230/230/230
f 23/23/23 230/230/230 231/231/231
f 32/32/32 232/232/232 233/233/233
f 32/32/32 233/233/233 234/234/234
f 25/25/25 235/235/235 236/236/236
f 25/25/25 236/236/236 237/237/237
f 40/40/40 238/238/238 239/239/239
f 40/40/40 239/239/239 240/240/240
f 26/26/26 241/241/241 242/242/242
f 26/26/26 242/242/242 243/243/243
f 31/31/31 244/244/244 245/245/245
f 31/31/31 245/245/245 246/246/246
f 22/22/22 247/247/247 248/248/248
f 22/22/22 248/248/248 249/249/249
f 48/48/48 250/250/250 251/251/251
f 48/48/48 251/251/251 252/252/252
f 29/29/29 253/253/253 254/254/254
f 29/29/29 254/254/254 255/255/255
f 37/37/37 256/256/256 257/257/257
f 37/37/37 257/257/257 258/258/258
f 30/30/30 259/259/259 260/260/260
f 30/30/30 260/260/260 261/261/261
f 47/47/47 262/262/262 263/263/263
f 47/47/47 263/263/263 264/264/264
f 36/36/36 265/265/265 266/266/266
f 36/36/36 266/266/266 267/267/267
f 52/52/52 268/268/268 269/269/269
f 52/52/52 269/269/269 270/270/270
f 65/65/65 271/271/271 272/272/272
f 65/65/65 272/272/272 273/273/273
f 51/51/51 274/274/274 275/275/275
f 51/51/51 275/275/275 276/276/276
f 63/63/63 277/277/277 278/278/278
f 63/63/63 278/278/278 279/279/279
f 66/66/66 280/280/280 281/281/281
f 66/66/66 281/281/281 282/282/282
f 33/33/33 283/283/283 284/284/284
f 33/33/33 284/284/284 285/285/285
f 68/68/68 286/286/286 287/287/287
f 68/68/68 287/287/287 288/288/288
f 69/69/69 289/289/289 290/290/290
f 69/69/69 290/290/290 291/291/291
f 62/62/62 292/292/292 293/293/293
f 62/62/62 293/293/293 294/294/294
f 70/70/70 295/295/295 296/296/296
f 70/70/70 296/296/296 297/297/297
f 67/67/67 298/298/298 299/299/299
f 67/67/67 299/299/299 300/300/300
f 35/35/35 301/301/301 302/302/302
f 35/35/35 302/302/302 303/303/303
f 56/56/56 304/304/304 305/305/305
f 56/56/56 305/305/305 306/306/306
f 49/49/49 307/307/307 308/308/308
f 49/49/49 308/308/308 309/309/309
f 64/64/64 310/310/310 311/311/311
f 64/64/64 311/311/311 312/312/312
f 50/50/50 313/313/313 314/314/314
f 50/50/50 314/314/314 315/315/315
f 55/55/55 316/316/316 317/317/317
f 55/55/55 317/317/317 318/318/318
f 34/34/34 319/319/319 320/320/320
f 34/34/34 320/320/320 321/321/321
f 72/72/72 322/322/322 323/323/323
f 72/72/72 323/323/323 324/324/324
f 53/53/53 325/325/325 326/326/326
f 53/53/53 326/326/326 327/327/327
f 61/61/61 328/328/328 329/329/329
f 61/61/61 329/329/329 330/330/330
f 54/54/54 331/331/331 332/332/332
f 54/54/54 332/332/332 333/333/333
f 71/71/71 334/334/334 335/335/335
f 71/71/71 335/335/335 336/336/336
f 60/60/60 337/337/337 338/338/338
f 60/60/60 338/338/338 339/339/339
f 76/76/76 340/340/340 341/341/341
f 76/76/76 341/341/341 342/342/342
f 85/85/85 343/343/343 344/344/344
f 85/85/85 344/344/344 345/345/345
f 75/75/75 346/346/346 347/347/347
f 75/75/75 347/347/347 348/348/348
f 83/83/83 349/349/349 350/350/350
f 83/83/83 350/350/350 351/351/351
f 86/86/86 352/352/352 353/353/353
f 86/86/86 353/353/353 354/354/354
f 57/57/57 355/355/355 356/356/356
f 57/57/57 356/356/356 357/357/357
f 88/88/88 358/358/358 359/359/359
f 88/88/88 359/359/359 360/360/360
f 89/89/89 361/361/361 362/362/362
f 89/89/89 362/362/362 363/363/363
f 82/82/82 364/364/364 365/365/365
f 82/82/82 365/365/365 366/366/366
f 90/90/90 367/367/367 368/368/368
f 90/90/90 368/368/368 369/369/369
f 87/87/87 370/370/370 371/371/371
f 87/87/87 371/371/371 372/372/372
f 59/59/59 373/373/373 374/374/374
f 59/59/59 374/374/374 375/375/375
f 80/80/80 376/376/376 377/377/377
f 80/80/80 377/377/377 378/378/378
f 73/73/73 379/379/379 380/380/380
f 73/73/73 380/380/380 381/381/381
f 84/84/84 382/382/382 383/383/383
f 84/84/84 383/383/383 384/384/384
f 74/74/74 385/385/385 386/386/386
f 74/74/74 386/386/386 387/387/387
f 79/79/79 388/388/388 389/389/389
f 79/79/79 389/389/389 390/390/390
f 58/58/58 391/391/391 392/392/392
f 58/58/58 392/392/392 393/393/393
f 92/92/92 394/394/394 395/395/395
f 92/92/92 395/395/395 396/396/396
f 77/77/77 397/397/397 398/398/398
f 77/77/77 398/398/398 399/399/399
f 81/81/81 400/400/400 401/401/401
f 81/81/81 401/401/401 402/402/402
f 78/78/78 403/403/403 404/404/404
f 78/78/78 404/404/404 405/405/405
f 91/91/91 406/406/406 407/407/407
f 91/91/91 407/407/407 408/408/408
f 96/96/96 409/409/409 410/410/410
f 96/96/96 410/410/410 411/411/411
f 100/100/100 412/412/412 413/413/413
f 100/100/100 413/413/413 414/414/414
f 109/109/109 415/415/415 416/416/416
f 109/109/109 416/416/416 417/417/417
f 99/99/99 418/418/418 419/419/419
f 99/99/99 419/419/419 420/420/420
f 107/107/107 421/421/421 422/422/422
f 107/107/107 422/422/422 423/423/423
f 110/110/110 424/424/424 425/425/425
f 110/110/110 425/425/425 426/426/426
f 93/93/93 427/427/427 428/428/428
f 93/93/93 428/428/428 429/429/429
f 112/112/112 430/430/430 431/431/431
f 112/112/112 431/431/431 432/432/432
f 113/113/113 433/433/433 434/434/434
f 113/113/113 434/434/434 435/435/435
f 106/106/106 436/436/436 437/437/437
f 106/106/106 437/437/437 438/438/438
f 114/114/114 439/439/439 440/440/440
f 114/114/114 440/440/440 441/441/441
f 111/111/111 442/442/442 443/443/443
f 111/111/111 443/443/443 444/444/444
f 95/95/95 445/445/445 446/446/446
f 95/95/95 446/446/446 447/447/447
f 104/104/104 448/448/448 449/449/449
f 104/104/104 449/449/449 450/450/450
f 97/97/97 451/451/451 452/452/452
f 97/97/97 452/452/452 453/453/453
f 108/108/108 454/454/454 455/455/455
f 108/108/108 455/455/455 456/456/456
f 98/98/98 457/457/457 458/458/458
f 98/98/98 458/458/458 459/459/459
f 103/103/103 460/460/460 461/461/461
f 103/103/103 461/461/461 462/462/462
f 94/94/94 463/463/463 464/464/464
f 94/94/94 464/464/464 465/465/465
f 116/116/116 466/466/466 467/467/467
f 116/116/116 467/467/467 468/468/468
f 101/101/101 469/469/469 470/470/470
f 101/101/101 470/470/470 471/471/471
f 105/105/105 472/472/472 473/473/473
f 105/105/105 473/473/473 474/474/474
f 102/102/102 475/475/475 476/476/476
f 102/102/102 476/476/476 477/477/477
f 115/115/115 478/478/478 479/479/479
f 115/115/115 479/479/479 480/480/480
f 136/136/136 117/117/117 120/120/120
f 136/136/136 120/120/120 137/137/137
f 142/142/142 124/124/124 13/13/13
f 142/142/142 13/13/13 16/16/16
f 4/4/4 3/3/3 129/129/129
f 4/4/4 129/129/129 121/121/121
f 126/126/126 133/133/133 14/14/14
f 126/126/126 14/14/14 13/13/13
f 11/11/11 10/10/10 148/148/148
f 11/11/11 148/148/148 130/130/130
f 135/135/135 152/152/152 15/15/15
f 135/135/135 15/15/15 14/14/14
f 18/18/18 17/17/17 145/145/145
f 18/18/18 145/145/145 149/149/149
f 154/154/154 140/140/140 16/16/16
f 154/154/154 16/16/16 15/15/15
f 174/174/174 136/136/136 139/139/139
f 174/174/174 139/139/139 175/175/175
f 180/180/180 143/143/143 17/17/17
f 180/180/180 17/17/17 20/20/20
f 10/10/10 9/9/9 186/186/186
f 10/10/10 186/186/186 146/146/146
f 151/151/151 190/190/190 19/19/19
f 151/151/151 19/19/19 18/18/18
f 6/6/6 5/5/5 183/183/183
f 6/6/6 183/183/183 187/187/187
f 192/192/192 178/178/178 20/20/20
f 192/192/192 20/20/20 19/19/19
f 155/155/155 174/174/174 177/177/177
f 155/155/155 177/177/177 156/156/156
f 161/161/161 181/181/181 5/5/5
f 161/161/161 5/5/5 8/8/8
f 9/9/9 12/12/12 167/167/167
f 9/9/9 167/167/167 184/184/184
f 189/189/189 171/171/171 7/7/7
f 189/189/189 7/7/7 6/6/6
f 2/2/2 1/1/1 164/164/164
f 2/2/2 164/164/164 168/168/168
f 173/173/173 159/159/159 8/8/8
f 173/173/173 8/8/8 7/7/7
f 117/117/117 155/155/155 158/158/158
f 117/117/117 158/158/158 118/118/118
f 123/123/123 162/162/162 1/1/1
f 123/123/123 1/1/1 4/4/4
f 12/12/12 11/11/11 132/132/132
f 12/12/12 132/132/132 165/165/165
f 170/170/170 127/127/127 3/3/3
f 170/170/170 3/3/3 2/2/2
f 21/21/21 24/24/24 195/195/195
f 21/21/21 195/195/195 211/211/211
f 216/216/216 199/199/199 41/41/41
f 216/216/216 41/41/41 44/44/44
f 28/28/28 27/27/27 204/204/204
f 28/28/28 204/204/204 196/196/196
f 201/201/201 208/208/208 42/42/42
f 201/201/201 42/42/42 41/41/41
f 39/39/39 38/38/38 222/222/222
f 39/39/39 222/222/222 205/205/205
f 210/210/210 226/226/226 43/43/43
f 210/210/210 43/43/43 42/42/42
f 46/46/46 45/45/45 219/219/219
f 46/46/46 219/219/219 223/223/223
f 228/228/228 214/214/214 44/44/44
f 228/228/228 44/44/44 43/43/43
f 22/22/22 21/21/21 213/213/213
f 22/22/22 213/213/213 247/247/247
f 252/252/252 217/217/217 45/45/45
f 252/252/252 45/45/45 48/48/48
f 38/38/38 37/37/37 258/258/258
f 38/38/38 258/258/258 220/220/220
f 225/225/225 262/262/262 47/47/47
f 225/225/225 47/47/47 46/46/46
f 30/30/30 29/29/29 255/255/255
f 30/30/30 255/255/255 259/259/259
f 264/264/264 250/250/250 48/48/48
f 264/264/264 48/48/48 47/47/47
f 23/23/23 22/22/22 249/249/249
f 23/23/23 249/249/249 229/229/229
f 234/234/234 253/253/253 29/29/29
f 234/234/234 29/29/29 32/32/32
f 37/37/37 40/40/40 240/240/240
f 37/37/37 240/240/240 256/256/256
f 261/261/261 244/244/244 31/31/31
f 261/261/261 31/31/31 30/30/30
f 26/26/26 25/25/25 237/237/237
f 26/26/26 237/237/237 241/241/241
f 246/246/246 232/232/232 32/32/32
f 246/246/246 32/32/32 31/31/31
f 24/24/24 23/23/23 231/231/231
f 24/24/24 231/231/231 193/193/193
f 198/198/198 235/235/235 25/25/25
f 198/198/198 25/25/25 28/28/28
f 40/40/40 39/39/39 207/207/207
f 40/40/40 207/207/207 238/238/238
f 243/243/243 202/202/202 27/27/27
f 243/243/243 27/27/27 26/26/26
f 33/33/33 36/36/36 267/267/267
f 33/33/33 267/267/267 283/283/283
f 288/288/288 271/271/271 65/65/65
f 288/288/288 65/65/65 68/68/68
f 52/52/52 51/51/51 276/276/276
f 52/52/52 276/276/276 268/268/268
f 273/273/273 280/280/280 66/66/66
f 273/273/273 66/66/66 65/65/65
f 63/63/63 62/62/62 294/294/294
f 63/63/63 294/294/294 277/277/277
f 282/282/282 298/298/298 67/67/67
f 282/282/282 67/67/67 66/66/66
f 70/70/70 69/69/69 291/291/291
f 70/70/70 291/291/291 295/295/295
f 300/300/300 286/286/286 68/68/68
f 300/300/300 68/68/68 67/67/67
f 34/34/34 33/33/33 285/285/285
f 34/34/34 285/285/285 319/319/319
f 324/324/324 289/289/289 69/69/69
f 324/324/324 69/69/69 72/72/72
f 62/62/62 61/61/61 330/330/330
f 62/62/62 330/330/330 292/292/292
f 297/297/297 334/334/334 71/71/71
f 297/297/297 71/71/71 70/70/70
f 54/54/54 53/53/53 327/327/327
f 54/54/54 327/327/327 331/331/331
f 336/336/336 322/322/322 72/72/72
f 336/336/336 72/72/72 71/71/71
f 35/35/35 34/34/34 321/321/321
f 35/35/35 321/321/321 301/301/301
f 306/306/306 325/325/325 53/53/53
f 306/306/306 53/53/53 56/56/56
f 61/61/61 64/64/64 312/312/312
f 61/61/61 312/312/312 328/328/328
f 333/333/333 316/316/316 55/55/55
f 333/333/333 55/55/55 54/54/54
f 50/50/50 49/49/49 309/309/309
f 50/50/50 309/309/309 313/313/313
f 318/318/318 304/304/304 56/56/56
f 318/318/318 56/56/56 55/55/55
f 36/36/36 35/35/35 303/303/303
f 36/36/36 303/303/303 265/265/265
f 270/270/270 307/307/307 49/49/49
f 270/270/270 49/49/49 52/52/52
f 64/64/64 63/63/63 279/279/279
f 64/64/64 279/279/279 310/310/310
f 315/315/315 274/274/274 51/51/51
f 315/315/315 51/51/51 50/50/50
f 57/57/57 60/60/60 339/339/339
f 57/57/57 339/339/339 355/355/355
f 360/360/360 343/343/343 85/85/85
f 360/360/360 85/85/85 88/88/88
f 76/76/76 75/75/75 348/348/348
f 76/76/76 348/348/348 340/340/340
f 345/345/345 352/352/352 86/86/86
f 345/345/345 86/86/86 85/85/85
f 83/83/83 82/82/82 366/366/366
f 83/83/83 366/366/366 349/349/349
f 354/354/354 370/370/370 87/87/87
f 354/354/354 87/87/87 86/86/86
f 90/90/90 89/89/89 363/363/363
f 90/90/90 363/363/363 367/367/367
f 372/372/372 358/358/358 88/88/88
f 372/372/372 88/88/88 87/87/87
f 58/58/58 57/57/57 357/357/357
f 58/58/58 357/357/357 391/391/391
f 396/396/396 361/361/361 89/89/89
f 396/396/396 89/89/89 92/92/92
f 82/82/82 81/81/81 402/402/402
f 82/82/82 402/402/402 364/364/364
f 369/369/369 406/406/406 91/91/91
f 369/369/369 91/91/91 90/90/90
f 78/78/78 77/77/77 399/399/399
f 78/78/78 399/399/399 403/403/403
f 408/408/408 394/394/394 92/92/92
f 408/408/408 92/92/92 91/91/91
f 59/59/59 58/58/58 393/393/393
f 59/59/59 393/393/393 373/373/373
f 378/378/378 397/397/397 77/77/77
f 378/378/378 77/77/77 80/80/80
f 81/81/81 84/84/84 384/384/384
f 81/81/81 384/384/384 400/400/400
f 405/405/405 388/388/388 79/79/79
f 405/405/405 79/79/79 78/78/78
f 74/74/74 73/73/73 381/381/381
f 74/74/74 381/381/381 385/385/385
f 390/390/390 376/376/376 80/80/80
f 390/390/390 80/80/80 79/79/79
f 60/60/60 59/59/59 375/375/375
f 60/60/60 375/375/375 337/337/337
f 342/342/342 379/379/379 73/73/73
f 342/342/342 73/73/73 76/76/76
f 84/84/84 83/83/83 351/351/351
f 84/84/84 351/351/351 382/382/382
f 387/387/387 346/346/346 75/75/75
f 387/387/387 75/75/75 74/74/74
f 93/93/93 96/96/96 411/411/411
f 93/93/93 411/411/411 427/427/427
f 432/432/432 415/415/415 109/109/109
f 432/432/432 109/109/109 112/112/112
f 100/100/100 99/99/99 420/420/420
f 100/100/100 420/420/420 412/412/412
f 417/417/417 424/424/424 110/110/110
f 417/417/417 110/110/110 109/109/109
f 107/107/107 106/106/106 438/438/438
f 107/107/107 438/438/438 421/421/421
f 426/426/426 442/442/442 111/111/111
f 426/426/426 111/111/111 110/110/110
f 114/114/114 113/113/113 435/435/435
f 114/114/114 435/435/435 439/439/439
f 444/444/444 430/430/430 112/112/112
f 444/444/444 112/112/112 111/111/111
f 94/94/94 93/93/93 429/429/429
f 94/94/94 429/429/429 463/463/463
f 468/468/468 433/433/433 113/113/113
f 468/468/468 113/113/113 116/116/116
f 106/106/106 105/105/105 474/474/474
f 106/106/106 474/474/474 436/436/436
f 441/441/441 478/478/478 115/115/115
f 441/441/441 115/115/115 114/114/114
f 102/102/102 101/101/101 471/471/471
f 102/102/102 471/471/471 475/475/475
f 480/480/480 466/466/466 116/116/116
f 480/480/480 116/116/116 115/115/115
f 95/95/95 94/94/94 465/465/465
f 95/95/95 465/465/465 445/445/445
f 450/450/450 469/469/469 101/101/101
f 450/450/450 101/101/101 104/104/104
f 105/105/105 108/108/108 456/456/456
f 105/105/105 456/456/456 472/472/472
f 477/477/477 460/460/460 103/103/103
f 477/477/477 103/103/103 102/102/102
f 98/98/98 97/97/97 453/453/453
f 98/98/98 453/453/453 457/457/457
f 462/462/462 448/448/448 104/104/104
f 462/462/462 104/104/104 103/103/103
f 96/96/96 95/95/95 447/447/447
f 96/96/96 447/447/447 409/409/409
f 414/414/414 451/451/451 97/97/97
f 414/414/414 97/97/97 100/100/100
f 108/108/108 107/107/107 423/423/423
f 108/108/108 423/423/423 454/454/454
f 459/459/459 418/418/418 99/99/99
f 459/459/459 99/99/99 98/98/98
f 136/136/136 174/174/174 155/155/155
f 136/136/136 155/155/155 117/117/117

